<?xml version="1.0" encoding="UTF-8"?>
<svg id="Layer_2" data-name="Layer 2" xmlns="http://www.w3.org/2000/svg" viewBox="0 0 102.37 104.39">
  <defs>
    <style>
      .cls-1 {
        font-size: 9.42px;
      }

      .cls-1, .cls-2 {
        font-family: Lato-Black, Lato;
        font-weight: 800;
      }

      .cls-1, .cls-2, .cls-3 {
        fill: #231f20;
      }

      .cls-2 {
        font-size: 10.77px;
      }
    </style>
  </defs>
  <g id="Layer_1-2" data-name="Layer 1">
    <g>
        <path class="cls-3" d="M0,82.89V0H82.99V25.17h4.01v28.16h-3.99v29.56H0ZM3.45,3.44V79.44H79.53V42.46h-4.88v8.26h-7.33V27.61h7.35v8.05h4.85V3.44H3.45Z"/>
        <path class="cls-3" d="M93.86,48.6h-2.45c-.1-.1-.07-.22-.07-.33,0-.94-.03-1.88,0-2.81,.03-.8,.18-1.6,.34-2.39,.11-.51,.44-.75,.92-.76,.47,0,.79,.23,.95,.73,.13,.4,.14,.83,.21,1.24,.24,1.38,.11,2.78,.13,4.17,0,.04-.02,.09-.04,.15Z"/>
        <path class="cls-3" d="M91.39,29.07h2.45c.1,.09,.06,.2,.06,.3,0,.95,.01,1.9,0,2.85-.01,.57-.14,1.13-.22,1.7-.04,.29-.07,.58-.18,.85-.14,.36-.4,.56-.8,.57-.4,.02-.7-.11-.9-.47-.15-.28-.17-.58-.22-.88-.32-1.61-.23-3.24-.22-4.86,0,0,.01-.02,.04-.07Z"/>
        <path class="cls-3" d="M98.6,31.06c.6,.6,1.19,1.19,1.82,1.82-.27,.26-.57,.54-.87,.82-.23,.22-.46,.44-.67,.67-.69,.76-1.51,1.36-2.34,1.96-.1,.07-.21,.14-.33,.2-.45,.23-.78,.18-1.12-.15-.33-.32-.39-.67-.19-1.12,.12-.26,.3-.47,.47-.7,.88-1.17,2.1-2.49,3.23-3.5Z"/>
        <path class="cls-3" d="M100.38,44.79c-.6,.6-1.19,1.18-1.79,1.78-.08-.03-.14-.13-.22-.21-.37-.36-.72-.74-1.1-1.09-.83-.76-1.52-1.63-2.16-2.54-.09-.13-.18-.27-.24-.43-.17-.45-.11-.71,.24-1.04,.31-.3,.66-.33,1.04-.18,.39,.16,.68,.46,1.01,.69,1.22,.84,2.16,1.98,3.21,2.99,.01,.01,.02,.04,0,.02Z"/>
        <path class="cls-3" d="M102.37,37.57v2.49c-.14,.07-.27,.04-.4,.04-.86,0-1.71,0-2.57,0-.82,0-1.62-.2-2.43-.31-.08-.01-.16-.04-.24-.07-.43-.16-.61-.4-.62-.83,0-.5,.17-.79,.61-.96,.35-.14,.73-.14,1.1-.21,1.08-.21,2.17-.14,3.26-.15,.42,0,.84,0,1.29,0Z"/>
        <path class="cls-3" d="M65.63,32.68c-1.29,1.13-2.56,2.24-3.82,3.34-.05-.02-.08-.02-.09-.03-.69-.93-1.64-1.4-2.77-1.55-.41-.05-.79-.02-1.18,.11-.23,.07-.42,.2-.58,.39-.28,.33-.27,.66,.05,.96,.26,.25,.6,.37,.93,.48,.93,.31,1.9,.5,2.85,.78,1.06,.31,2.1,.66,3.04,1.27,1.14,.75,1.92,1.75,2.14,3.12,.26,1.59-.1,3.05-1.07,4.34-1.06,1.39-2.52,2.17-4.19,2.51-2.35,.47-4.66,.33-6.91-.54-.67-.26-1.3-.61-1.88-1.03-.19-.14-.39-.19-.62-.19-.8,0-1.6,0-2.4,0-.13,0-.26,.02-.42-.04-.19-.54-.39-1.1-.59-1.67h-4.47c-.25,.53-.37,1.13-.61,1.69h-4.49c.07-.4,.29-.73,.35-1.15h-6.62v-1.07h-5.89c-.1-.27-.14-9.36-.05-10.07h3.18v7.24h2.74v-8.19h7.93v3.19c-.68,.02-1.35,0-2.02,0-.68,0-1.36,0-2.08,0,0,.41-.02,.79,.01,1.2h3.26v3.22h-3.26v1.27h4c1.21-3.32,2.43-6.66,3.66-10.01h4.27c1.41,3.87,2.82,7.76,4.25,11.68,.92-.66,1.8-1.29,2.7-1.95,.28,.33,.54,.65,.88,.91,.79,.6,1.69,.91,2.67,.94,.54,.01,1.05-.12,1.46-.49,.47-.42,.42-.88-.13-1.19-.44-.25-.94-.37-1.42-.49-1.12-.28-2.26-.53-3.35-.93-.93-.34-1.81-.79-2.52-1.5-.82-.82-1.23-1.83-1.29-2.99-.08-1.4,.27-2.67,1.15-3.78,.85-1.08,1.98-1.73,3.28-2.13,.98-.3,1.99-.43,3.02-.4,2.03,.05,3.95,.47,5.65,1.66,.44,.31,.86,.65,1.26,1.1Zm-20.98,8.56h1.98c-.32-.95-.62-1.87-.93-2.79-.02,0-.04,0-.06,0-.32,.92-.65,1.84-.99,2.8Z"/>
        <path class="cls-3" d="M15.95,43.68v-8.83h2.9c.91,1.3,1.85,2.63,2.78,3.96,.02,0,.04,0,.06,0v-3.95h2.8v8.81c-.08,.08-.18,.04-.26,.04-.69,0-1.39,0-2.08,0-.23,0-.36-.08-.48-.26-.91-1.31-1.83-2.61-2.74-3.92-.04-.05-.05-.13-.17-.14v4.29h-2.8Z"/>
        <path class="cls-3" d="M12.01,34.85h2.78c.07,.1,.05,.2,.05,.29,0,1.79,.01,3.59,0,5.38,0,.83-.23,1.59-.8,2.23-.45,.51-1.02,.81-1.67,.97-1.14,.27-2.26,.25-3.34-.22-1.11-.49-1.69-1.39-1.78-2.58-.13-1.67-.03-3.35-.05-5.03,0-.34,0-.68,0-1.04h2.82c.07,.13,.04,.26,.04,.38,0,1.68,0,3.35,0,5.03,0,.23,0,.47,.08,.69,.11,.33,.34,.52,.69,.56,.77,.09,1.15-.24,1.15-1.03,0-1.75,0-3.49,0-5.24,0-.13-.03-.26,.04-.4Z"/>
      </g>
    </g>
</svg>